<?xml version="1.0" encoding="us-ascii" standalone="no"?><svg xmlns="http://www.w3.org/2000/svg" xmlns:xlink="http://www.w3.org/1999/xlink" contentStyleType="text/css" height="239px" preserveAspectRatio="none" style="width:339px;height:239px;background:#FFFFFF;" version="1.1" viewBox="0 0 339 239" width="339px" zoomAndPan="magnify"><defs/><g><text fill="#000000" font-family="sans-serif" font-size="14" font-weight="bold" lengthAdjust="spacing" textLength="99" x="113" y="22.9951">Dependency</text><g id="elem_Vehicle"><rect codeLine="4" fill="#F1F1F1" height="64.2969" id="Vehicle" rx="2.5" ry="2.5" style="stroke:#181818;stroke-width:0.5;" width="157" x="83" y="44.2969"/><ellipse cx="132.25" cy="60.2969" fill="#ADD1B2" rx="11" ry="11" style="stroke:#181818;stroke-width:1.0;"/><path d="M135.2188,65.9375 Q134.6406,66.2344 134,66.375 Q133.3594,66.5313 132.6563,66.5313 Q130.1563,66.5313 128.8281,64.8906 Q127.5156,63.2344 127.5156,60.1094 Q127.5156,56.9844 128.8281,55.3281 Q130.1563,53.6719 132.6563,53.6719 Q133.3594,53.6719 134,53.8281 Q134.6563,53.9844 135.2188,54.2813 L135.2188,57 Q134.5938,56.4219 134,56.1563 Q133.4063,55.875 132.7813,55.875 Q131.4375,55.875 130.75,56.9531 Q130.0625,58.0156 130.0625,60.1094 Q130.0625,62.2031 130.75,63.2813 Q131.4375,64.3438 132.7813,64.3438 Q133.4063,64.3438 134,64.0781 Q134.5938,63.7969 135.2188,63.2188 L135.2188,65.9375 Z " fill="#000000"/><text fill="#000000" font-family="sans-serif" font-size="14" lengthAdjust="spacing" textLength="50" x="152.75" y="65.1436">Vehicle</text><line style="stroke:#181818;stroke-width:0.5;" x1="84" x2="239" y1="76.2969" y2="76.2969"/><line style="stroke:#181818;stroke-width:0.5;" x1="84" x2="239" y1="84.2969" y2="84.2969"/><text fill="#000000" font-family="sans-serif" font-size="14" lengthAdjust="spacing" textLength="145" x="89" y="101.292">move(MoveBehavior)</text></g><g id="elem_MoveBehavior"><rect codeLine="8" fill="#F1F1F1" height="64.2969" id="MoveBehavior" rx="2.5" ry="2.5" style="stroke:#181818;stroke-width:0.5;" width="129" x="7" y="168.2969"/><ellipse cx="22" cy="184.2969" fill="#B4A7E5" rx="11" ry="11" style="stroke:#181818;stroke-width:1.0;"/><path d="M17.9219,180.0625 L17.9219,177.9063 L25.3125,177.9063 L25.3125,180.0625 L22.8438,180.0625 L22.8438,188.1406 L25.3125,188.1406 L25.3125,190.2969 L17.9219,190.2969 L17.9219,188.1406 L20.3906,188.1406 L20.3906,180.0625 L17.9219,180.0625 Z " fill="#000000"/><text fill="#000000" font-family="sans-serif" font-size="14" font-style="italic" lengthAdjust="spacing" textLength="97" x="36" y="189.1436">MoveBehavior</text><line style="stroke:#181818;stroke-width:0.5;" x1="8" x2="135" y1="200.2969" y2="200.2969"/><line style="stroke:#181818;stroke-width:0.5;" x1="8" x2="135" y1="208.2969" y2="208.2969"/><text fill="#000000" font-family="sans-serif" font-size="14" lengthAdjust="spacing" textLength="48" x="13" y="225.292">move()</text></g><g id="elem_N"><path d="M171,187.7969 L171,212.9297 A0,0 0 0 0 171,212.9297 L332,212.9297 A0,0 0 0 0 332,212.9297 L332,197.7969 L322,187.7969 L246.902,187.7969 L184.444,108.3979 L238.902,187.7969 L171,187.7969 A0,0 0 0 0 171,187.7969 " fill="#FEFFDD" style="stroke:#181818;stroke-width:0.5;"/><path d="M322,187.7969 L322,197.7969 L332,197.7969 L322,187.7969 " fill="#FEFFDD" style="stroke:#181818;stroke-width:0.5;"/><text fill="#000000" font-family="sans-serif" font-size="13" lengthAdjust="spacing" textLength="140" x="177" y="204.8638">MoveBehavior.move()</text></g><g id="link_Vehicle_MoveBehavior"><path codeLine="13" d="M138.556,108.3979 C125.016,126.7539 111.4969,145.0786 97.9637,163.4239 " fill="none" id="Vehicle-to-MoveBehavior" style="stroke:#181818;stroke-width:1.0;stroke-dasharray:7.0,7.0;"/><polygon fill="#181818" points="94.4018,168.2523,102.9635,163.3843,97.37,164.2286,96.5257,158.6351,94.4018,168.2523" style="stroke:#181818;stroke-width:1.0;"/></g></g></svg>