<?xml version="1.0" encoding="UTF-8" standalone="no"?><svg xmlns="http://www.w3.org/2000/svg" xmlns:xlink="http://www.w3.org/1999/xlink" contentScriptType="application/ecmascript" contentStyleType="text/css" height="87px" preserveAspectRatio="none" style="width:208px;height:87px;" version="1.1" viewBox="0 0 208 87" width="208px" zoomAndPan="magnify"><defs><filter height="300%" id="fn52q1grt8tgx" width="300%" x="-1" y="-1"><feGaussianBlur result="blurOut" stdDeviation="2.0"/><feColorMatrix in="blurOut" result="blurOut2" type="matrix" values="0 0 0 0 0 0 0 0 0 0 0 0 0 0 0 0 0 0 .4 0"/><feOffset dx="4.0" dy="4.0" in="blurOut2" result="blurOut3"/><feBlend in="SourceGraphic" in2="blurOut3" mode="normal"/></filter></defs><g><text fill="#000000" font-family="sans-serif" font-size="18" lengthAdjust="spacingAndGlyphs" textLength="97" x="59" y="16.708">Association</text><rect fill="#FEFECE" filter="url(#fn52q1grt8tgx)" height="48" id="School" style="stroke: #A80036; stroke-width: 1.5;" width="74" x="6" y="28.9531"/><ellipse cx="21" cy="44.9531" fill="#ADD1B2" rx="11" ry="11" style="stroke: #A80036; stroke-width: 1.0;"/><path d="M23.9688,50.5938 Q23.3906,50.8906 22.75,51.0391 Q22.1094,51.1875 21.4063,51.1875 Q18.9063,51.1875 17.5859,49.5391 Q16.2656,47.8906 16.2656,44.7656 Q16.2656,41.6406 17.5859,39.9844 Q18.9063,38.3281 21.4063,38.3281 Q22.1094,38.3281 22.7578,38.4844 Q23.4063,38.6406 23.9688,38.9375 L23.9688,41.6563 Q23.3438,41.0781 22.75,40.8047 Q22.1563,40.5313 21.5313,40.5313 Q20.1875,40.5313 19.5,41.6016 Q18.8125,42.6719 18.8125,44.7656 Q18.8125,46.8594 19.5,47.9297 Q20.1875,49 21.5313,49 Q22.1563,49 22.75,48.7266 Q23.3438,48.4531 23.9688,47.875 L23.9688,50.5938 Z "/><text fill="#000000" font-family="sans-serif" font-size="12" lengthAdjust="spacingAndGlyphs" textLength="42" x="35" y="49.1074">School</text><line style="stroke: #A80036; stroke-width: 1.5;" x1="7" x2="79" y1="60.9531" y2="60.9531"/><line style="stroke: #A80036; stroke-width: 1.5;" x1="7" x2="79" y1="68.9531" y2="68.9531"/><rect fill="#FEFECE" filter="url(#fn52q1grt8tgx)" height="48" id="Student" style="stroke: #A80036; stroke-width: 1.5;" width="82" x="115" y="28.9531"/><ellipse cx="130" cy="44.9531" fill="#ADD1B2" rx="11" ry="11" style="stroke: #A80036; stroke-width: 1.0;"/><path d="M132.9688,50.5938 Q132.3906,50.8906 131.75,51.0391 Q131.1094,51.1875 130.4063,51.1875 Q127.9063,51.1875 126.5859,49.5391 Q125.2656,47.8906 125.2656,44.7656 Q125.2656,41.6406 126.5859,39.9844 Q127.9063,38.3281 130.4063,38.3281 Q131.1094,38.3281 131.7578,38.4844 Q132.4063,38.6406 132.9688,38.9375 L132.9688,41.6563 Q132.3438,41.0781 131.75,40.8047 Q131.1563,40.5313 130.5313,40.5313 Q129.1875,40.5313 128.5,41.6016 Q127.8125,42.6719 127.8125,44.7656 Q127.8125,46.8594 128.5,47.9297 Q129.1875,49 130.5313,49 Q131.1563,49 131.75,48.7266 Q132.3438,48.4531 132.9688,47.875 L132.9688,50.5938 Z "/><text fill="#000000" font-family="sans-serif" font-size="12" lengthAdjust="spacingAndGlyphs" textLength="50" x="144" y="49.1074">Student</text><line style="stroke: #A80036; stroke-width: 1.5;" x1="116" x2="196" y1="60.9531" y2="60.9531"/><line style="stroke: #A80036; stroke-width: 1.5;" x1="116" x2="196" y1="68.9531" y2="68.9531"/><path d="M80.0781,52.9531 C91.6443,52.9531 103.2106,52.9531 114.7768,52.9531 " fill="none" id="School-Student" style="stroke: #A80036; stroke-width: 1.0;"/><text fill="#000000" font-family="sans-serif" font-size="13" lengthAdjust="spacingAndGlyphs" textLength="8" x="87.9086" y="48.603">1</text><text fill="#000000" font-family="sans-serif" font-size="13" lengthAdjust="spacingAndGlyphs" textLength="8" x="99.0041" y="48.7424">n</text></g></svg>