<?xml version="1.0" encoding="us-ascii" standalone="no"?><svg xmlns="http://www.w3.org/2000/svg" xmlns:xlink="http://www.w3.org/1999/xlink" contentStyleType="text/css" height="207px" preserveAspectRatio="none" style="width:159px;height:207px;background:#FFFFFF;" version="1.1" viewBox="0 0 159 207" width="159px" zoomAndPan="magnify"><defs/><g><text fill="#000000" font-family="sans-serif" font-size="14" font-weight="bold" lengthAdjust="spacing" textLength="85" x="30" y="22.9951">Realization</text><g id="elem_MoveBehavior"><rect codeLine="4" fill="#F1F1F1" height="48" id="MoveBehavior" rx="2.5" ry="2.5" style="stroke:#181818;stroke-width:0.5;" width="129" x="12.5" y="44.2969"/><ellipse cx="27.5" cy="60.2969" fill="#B4A7E5" rx="11" ry="11" style="stroke:#181818;stroke-width:1.0;"/><path d="M23.4219,56.0625 L23.4219,53.9063 L30.8125,53.9063 L30.8125,56.0625 L28.3438,56.0625 L28.3438,64.1406 L30.8125,64.1406 L30.8125,66.2969 L23.4219,66.2969 L23.4219,64.1406 L25.8906,64.1406 L25.8906,56.0625 L23.4219,56.0625 Z " fill="#000000"/><text fill="#000000" font-family="sans-serif" font-size="14" font-style="italic" lengthAdjust="spacing" textLength="97" x="41.5" y="65.1436">MoveBehavior</text><line style="stroke:#181818;stroke-width:0.5;" x1="13.5" x2="140.5" y1="76.2969" y2="76.2969"/><line style="stroke:#181818;stroke-width:0.5;" x1="13.5" x2="140.5" y1="84.2969" y2="84.2969"/></g><g id="elem_Fly"><rect codeLine="5" fill="#F1F1F1" height="48" id="Fly" rx="2.5" ry="2.5" style="stroke:#181818;stroke-width:0.5;" width="50" x="7" y="152.2969"/><ellipse cx="22" cy="168.2969" fill="#ADD1B2" rx="11" ry="11" style="stroke:#181818;stroke-width:1.0;"/><path d="M24.9688,173.9375 Q24.3906,174.2344 23.75,174.375 Q23.1094,174.5313 22.4063,174.5313 Q19.9063,174.5313 18.5781,172.8906 Q17.2656,171.2344 17.2656,168.1094 Q17.2656,164.9844 18.5781,163.3281 Q19.9063,161.6719 22.4063,161.6719 Q23.1094,161.6719 23.75,161.8281 Q24.4063,161.9844 24.9688,162.2813 L24.9688,165 Q24.3438,164.4219 23.75,164.1563 Q23.1563,163.875 22.5313,163.875 Q21.1875,163.875 20.5,164.9531 Q19.8125,166.0156 19.8125,168.1094 Q19.8125,170.2031 20.5,171.2813 Q21.1875,172.3438 22.5313,172.3438 Q23.1563,172.3438 23.75,172.0781 Q24.3438,171.7969 24.9688,171.2188 L24.9688,173.9375 Z " fill="#000000"/><text fill="#000000" font-family="sans-serif" font-size="14" lengthAdjust="spacing" textLength="18" x="36" y="173.1436">Fly</text><line style="stroke:#181818;stroke-width:0.5;" x1="8" x2="56" y1="184.2969" y2="184.2969"/><line style="stroke:#181818;stroke-width:0.5;" x1="8" x2="56" y1="192.2969" y2="192.2969"/></g><g id="elem_Run"><rect codeLine="6" fill="#F1F1F1" height="48" id="Run" rx="2.5" ry="2.5" style="stroke:#181818;stroke-width:0.5;" width="60" x="92" y="152.2969"/><ellipse cx="107" cy="168.2969" fill="#ADD1B2" rx="11" ry="11" style="stroke:#181818;stroke-width:1.0;"/><path d="M109.9688,173.9375 Q109.3906,174.2344 108.75,174.375 Q108.1094,174.5313 107.4063,174.5313 Q104.9063,174.5313 103.5781,172.8906 Q102.2656,171.2344 102.2656,168.1094 Q102.2656,164.9844 103.5781,163.3281 Q104.9063,161.6719 107.4063,161.6719 Q108.1094,161.6719 108.75,161.8281 Q109.4063,161.9844 109.9688,162.2813 L109.9688,165 Q109.3438,164.4219 108.75,164.1563 Q108.1563,163.875 107.5313,163.875 Q106.1875,163.875 105.5,164.9531 Q104.8125,166.0156 104.8125,168.1094 Q104.8125,170.2031 105.5,171.2813 Q106.1875,172.3438 107.5313,172.3438 Q108.1563,172.3438 108.75,172.0781 Q109.3438,171.7969 109.9688,171.2188 L109.9688,173.9375 Z " fill="#000000"/><text fill="#000000" font-family="sans-serif" font-size="14" lengthAdjust="spacing" textLength="28" x="121" y="173.1436">Run</text><line style="stroke:#181818;stroke-width:0.5;" x1="93" x2="151" y1="184.2969" y2="184.2969"/><line style="stroke:#181818;stroke-width:0.5;" x1="93" x2="151" y1="192.2969" y2="192.2969"/></g><g id="link_MoveBehavior_Fly"><path codeLine="8" d="M60.2019,108.8657 C52.7056,126.5241 49.4308,134.2377 41.9007,151.9753 " fill="none" id="MoveBehavior-backto-Fly" style="stroke:#181818;stroke-width:1.0;stroke-dasharray:7.0,7.0;"/><polygon fill="none" points="67.2357,92.2969,54.679,106.5211,65.7249,111.2103,67.2357,92.2969" style="stroke:#181818;stroke-width:1.0;"/></g><g id="link_MoveBehavior_Run"><path codeLine="9" d="M93.7981,108.8657 C101.2944,126.5241 104.5692,134.2377 112.099,151.9753 " fill="none" id="MoveBehavior-backto-Run" style="stroke:#181818;stroke-width:1.0;stroke-dasharray:7.0,7.0;"/><polygon fill="none" points="86.7643,92.2969,88.2751,111.2103,99.321,106.5211,86.7643,92.2969" style="stroke:#181818;stroke-width:1.0;"/></g></g></svg>