<?xml version="1.0" encoding="us-ascii" standalone="no"?><svg xmlns="http://www.w3.org/2000/svg" xmlns:xlink="http://www.w3.org/1999/xlink" contentStyleType="text/css" height="207px" preserveAspectRatio="none" style="width:175px;height:207px;background:#FFFFFF;" version="1.1" viewBox="0 0 175 207" width="175px" zoomAndPan="magnify"><defs/><g><text fill="#000000" font-family="sans-serif" font-size="14" font-weight="bold" lengthAdjust="spacing" textLength="114" x="23.5" y="22.9951">Generalization</text><g id="elem_Vehicle"><rect codeLine="3" fill="#F1F1F1" height="48" id="Vehicle" rx="2.5" ry="2.5" style="stroke:#181818;stroke-width:0.5;" width="82" x="42.5" y="44.2969"/><ellipse cx="57.5" cy="60.2969" fill="#ADD1B2" rx="11" ry="11" style="stroke:#181818;stroke-width:1.0;"/><path d="M60.4688,65.9375 Q59.8906,66.2344 59.25,66.375 Q58.6094,66.5313 57.9063,66.5313 Q55.4063,66.5313 54.0781,64.8906 Q52.7656,63.2344 52.7656,60.1094 Q52.7656,56.9844 54.0781,55.3281 Q55.4063,53.6719 57.9063,53.6719 Q58.6094,53.6719 59.25,53.8281 Q59.9063,53.9844 60.4688,54.2813 L60.4688,57 Q59.8438,56.4219 59.25,56.1563 Q58.6563,55.875 58.0313,55.875 Q56.6875,55.875 56,56.9531 Q55.3125,58.0156 55.3125,60.1094 Q55.3125,62.2031 56,63.2813 Q56.6875,64.3438 58.0313,64.3438 Q58.6563,64.3438 59.25,64.0781 Q59.8438,63.7969 60.4688,63.2188 L60.4688,65.9375 Z " fill="#000000"/><text fill="#000000" font-family="sans-serif" font-size="14" lengthAdjust="spacing" textLength="50" x="71.5" y="65.1436">Vehicle</text><line style="stroke:#181818;stroke-width:0.5;" x1="43.5" x2="123.5" y1="76.2969" y2="76.2969"/><line style="stroke:#181818;stroke-width:0.5;" x1="43.5" x2="123.5" y1="84.2969" y2="84.2969"/></g><g id="elem_Car"><rect codeLine="4" fill="#F1F1F1" height="48" id="Car" rx="2.5" ry="2.5" style="stroke:#181818;stroke-width:0.5;" width="55" x="7" y="152.2969"/><ellipse cx="22" cy="168.2969" fill="#ADD1B2" rx="11" ry="11" style="stroke:#181818;stroke-width:1.0;"/><path d="M24.9688,173.9375 Q24.3906,174.2344 23.75,174.375 Q23.1094,174.5313 22.4063,174.5313 Q19.9063,174.5313 18.5781,172.8906 Q17.2656,171.2344 17.2656,168.1094 Q17.2656,164.9844 18.5781,163.3281 Q19.9063,161.6719 22.4063,161.6719 Q23.1094,161.6719 23.75,161.8281 Q24.4063,161.9844 24.9688,162.2813 L24.9688,165 Q24.3438,164.4219 23.75,164.1563 Q23.1563,163.875 22.5313,163.875 Q21.1875,163.875 20.5,164.9531 Q19.8125,166.0156 19.8125,168.1094 Q19.8125,170.2031 20.5,171.2813 Q21.1875,172.3438 22.5313,172.3438 Q23.1563,172.3438 23.75,172.0781 Q24.3438,171.7969 24.9688,171.2188 L24.9688,173.9375 Z " fill="#000000"/><text fill="#000000" font-family="sans-serif" font-size="14" lengthAdjust="spacing" textLength="23" x="36" y="173.1436">Car</text><line style="stroke:#181818;stroke-width:0.5;" x1="8" x2="61" y1="184.2969" y2="184.2969"/><line style="stroke:#181818;stroke-width:0.5;" x1="8" x2="61" y1="192.2969" y2="192.2969"/></g><g id="elem_Truck"><rect codeLine="5" fill="#F1F1F1" height="48" id="Truck" rx="2.5" ry="2.5" style="stroke:#181818;stroke-width:0.5;" width="71" x="97" y="152.2969"/><ellipse cx="112" cy="168.2969" fill="#ADD1B2" rx="11" ry="11" style="stroke:#181818;stroke-width:1.0;"/><path d="M114.9688,173.9375 Q114.3906,174.2344 113.75,174.375 Q113.1094,174.5313 112.4063,174.5313 Q109.9063,174.5313 108.5781,172.8906 Q107.2656,171.2344 107.2656,168.1094 Q107.2656,164.9844 108.5781,163.3281 Q109.9063,161.6719 112.4063,161.6719 Q113.1094,161.6719 113.75,161.8281 Q114.4063,161.9844 114.9688,162.2813 L114.9688,165 Q114.3438,164.4219 113.75,164.1563 Q113.1563,163.875 112.5313,163.875 Q111.1875,163.875 110.5,164.9531 Q109.8125,166.0156 109.8125,168.1094 Q109.8125,170.2031 110.5,171.2813 Q111.1875,172.3438 112.5313,172.3438 Q113.1563,172.3438 113.75,172.0781 Q114.3438,171.7969 114.9688,171.2188 L114.9688,173.9375 Z " fill="#000000"/><text fill="#000000" font-family="sans-serif" font-size="14" lengthAdjust="spacing" textLength="39" x="126" y="173.1436">Truck</text><line style="stroke:#181818;stroke-width:0.5;" x1="98" x2="167" y1="184.2969" y2="184.2969"/><line style="stroke:#181818;stroke-width:0.5;" x1="98" x2="167" y1="192.2969" y2="192.2969"/></g><g id="link_Vehicle_Car"><path codeLine="7" d="M65.3151,108.6357 C57.1525,126.2941 53.4802,134.2377 45.2807,151.9753 " fill="none" id="Vehicle-backto-Car" style="stroke:#181818;stroke-width:1.0;"/><polygon fill="none" points="72.8677,92.2969,59.8688,106.1182,70.7613,111.1533,72.8677,92.2969" style="stroke:#181818;stroke-width:1.0;"/></g><g id="link_Vehicle_Truck"><path codeLine="8" d="M101.6849,108.6357 C109.8475,126.2941 113.52,134.2377 121.719,151.9753 " fill="none" id="Vehicle-backto-Truck" style="stroke:#181818;stroke-width:1.0;"/><polygon fill="none" points="94.1323,92.2969,96.2387,111.1533,107.1312,106.1182,94.1323,92.2969" style="stroke:#181818;stroke-width:1.0;"/></g></g></svg>