<?xml version="1.0" encoding="UTF-8" standalone="no"?><svg xmlns="http://www.w3.org/2000/svg" xmlns:xlink="http://www.w3.org/1999/xlink" contentScriptType="application/ecmascript" contentStyleType="text/css" height="195px" preserveAspectRatio="none" style="width:282px;height:195px;" version="1.1" viewBox="0 0 282 195" width="282px" zoomAndPan="magnify"><defs><filter height="300%" id="f1cz4fzf6yg9j1" width="300%" x="-1" y="-1"><feGaussianBlur result="blurOut" stdDeviation="2.0"/><feColorMatrix in="blurOut" result="blurOut2" type="matrix" values="0 0 0 0 0 0 0 0 0 0 0 0 0 0 0 0 0 0 .4 0"/><feOffset dx="4.0" dy="4.0" in="blurOut2" result="blurOut3"/><feBlend in="SourceGraphic" in2="blurOut3" mode="normal"/></filter></defs><g><text fill="#000000" font-family="sans-serif" font-size="18" lengthAdjust="spacingAndGlyphs" textLength="110" x="89.5" y="16.708">Composition</text><rect fill="#FEFECE" filter="url(#f1cz4fzf6yg9j1)" height="48" id="Company" style="stroke: #A80036; stroke-width: 1.5;" width="89" x="94" y="28.9531"/><ellipse cx="109" cy="44.9531" fill="#ADD1B2" rx="11" ry="11" style="stroke: #A80036; stroke-width: 1.0;"/><path d="M111.9688,50.5938 Q111.3906,50.8906 110.75,51.0391 Q110.1094,51.1875 109.4063,51.1875 Q106.9063,51.1875 105.5859,49.5391 Q104.2656,47.8906 104.2656,44.7656 Q104.2656,41.6406 105.5859,39.9844 Q106.9063,38.3281 109.4063,38.3281 Q110.1094,38.3281 110.7578,38.4844 Q111.4063,38.6406 111.9688,38.9375 L111.9688,41.6563 Q111.3438,41.0781 110.75,40.8047 Q110.1563,40.5313 109.5313,40.5313 Q108.1875,40.5313 107.5,41.6016 Q106.8125,42.6719 106.8125,44.7656 Q106.8125,46.8594 107.5,47.9297 Q108.1875,49 109.5313,49 Q110.1563,49 110.75,48.7266 Q111.3438,48.4531 111.9688,47.875 L111.9688,50.5938 Z "/><text fill="#000000" font-family="sans-serif" font-size="12" lengthAdjust="spacingAndGlyphs" textLength="57" x="123" y="49.1074">Company</text><line style="stroke: #A80036; stroke-width: 1.5;" x1="95" x2="182" y1="60.9531" y2="60.9531"/><line style="stroke: #A80036; stroke-width: 1.5;" x1="95" x2="182" y1="68.9531" y2="68.9531"/><rect fill="#FEFECE" filter="url(#f1cz4fzf6yg9j1)" height="48" id="DepartmentA" style="stroke: #A80036; stroke-width: 1.5;" width="115" x="6" y="136.9531"/><ellipse cx="21" cy="152.9531" fill="#ADD1B2" rx="11" ry="11" style="stroke: #A80036; stroke-width: 1.0;"/><path d="M23.9688,158.5938 Q23.3906,158.8906 22.75,159.0391 Q22.1094,159.1875 21.4063,159.1875 Q18.9063,159.1875 17.5859,157.5391 Q16.2656,155.8906 16.2656,152.7656 Q16.2656,149.6406 17.5859,147.9844 Q18.9063,146.3281 21.4063,146.3281 Q22.1094,146.3281 22.7578,146.4844 Q23.4063,146.6406 23.9688,146.9375 L23.9688,149.6563 Q23.3438,149.0781 22.75,148.8047 Q22.1563,148.5313 21.5313,148.5313 Q20.1875,148.5313 19.5,149.6016 Q18.8125,150.6719 18.8125,152.7656 Q18.8125,154.8594 19.5,155.9297 Q20.1875,157 21.5313,157 Q22.1563,157 22.75,156.7266 Q23.3438,156.4531 23.9688,155.875 L23.9688,158.5938 Z "/><text fill="#000000" font-family="sans-serif" font-size="12" lengthAdjust="spacingAndGlyphs" textLength="83" x="35" y="157.1074">DepartmentA</text><line style="stroke: #A80036; stroke-width: 1.5;" x1="7" x2="120" y1="168.9531" y2="168.9531"/><line style="stroke: #A80036; stroke-width: 1.5;" x1="7" x2="120" y1="176.9531" y2="176.9531"/><rect fill="#FEFECE" filter="url(#f1cz4fzf6yg9j1)" height="48" id="DepartmentB" style="stroke: #A80036; stroke-width: 1.5;" width="115" x="156" y="136.9531"/><ellipse cx="171" cy="152.9531" fill="#ADD1B2" rx="11" ry="11" style="stroke: #A80036; stroke-width: 1.0;"/><path d="M173.9688,158.5938 Q173.3906,158.8906 172.75,159.0391 Q172.1094,159.1875 171.4063,159.1875 Q168.9063,159.1875 167.5859,157.5391 Q166.2656,155.8906 166.2656,152.7656 Q166.2656,149.6406 167.5859,147.9844 Q168.9063,146.3281 171.4063,146.3281 Q172.1094,146.3281 172.7578,146.4844 Q173.4063,146.6406 173.9688,146.9375 L173.9688,149.6563 Q173.3438,149.0781 172.75,148.8047 Q172.1563,148.5313 171.5313,148.5313 Q170.1875,148.5313 169.5,149.6016 Q168.8125,150.6719 168.8125,152.7656 Q168.8125,154.8594 169.5,155.9297 Q170.1875,157 171.5313,157 Q172.1563,157 172.75,156.7266 Q173.3438,156.4531 173.9688,155.875 L173.9688,158.5938 Z "/><text fill="#000000" font-family="sans-serif" font-size="12" lengthAdjust="spacingAndGlyphs" textLength="83" x="185" y="157.1074">DepartmentB</text><line style="stroke: #A80036; stroke-width: 1.5;" x1="157" x2="270" y1="168.9531" y2="168.9531"/><line style="stroke: #A80036; stroke-width: 1.5;" x1="157" x2="270" y1="176.9531" y2="176.9531"/><path d="M113.9981,88.2358 C102.9586,104.1327 90.2041,122.4992 80.2753,136.7967 " fill="none" id="Company&lt;-DepartmentA" style="stroke: #A80036; stroke-width: 1.0;"/><polygon fill="#A80036" points="121.6685,77.1904,114.9606,79.837,114.8237,87.0468,121.5316,84.4002,121.6685,77.1904" style="stroke: #A80036; stroke-width: 1.0;"/><path d="M163.0019,88.2358 C174.0414,104.1327 186.7959,122.4992 196.7247,136.7967 " fill="none" id="Company&lt;-DepartmentB" style="stroke: #A80036; stroke-width: 1.0;"/><polygon fill="#A80036" points="155.3315,77.1904,155.4684,84.4002,162.1763,87.0468,162.0394,79.837,155.3315,77.1904" style="stroke: #A80036; stroke-width: 1.0;"/></g></svg>