<?xml version="1.0" encoding="us-ascii" standalone="no"?><svg xmlns="http://www.w3.org/2000/svg" xmlns:xlink="http://www.w3.org/1999/xlink" contentStyleType="text/css" height="207px" preserveAspectRatio="none" style="width:341px;height:207px;background:#FFFFFF;" version="1.1" viewBox="0 0 341 207" width="341px" zoomAndPan="magnify"><defs/><g><text fill="#000000" font-family="sans-serif" font-size="14" font-weight="bold" lengthAdjust="spacing" textLength="97" x="115" y="22.9951">Aggregation</text><g id="elem_Computer"><rect codeLine="4" fill="#F1F1F1" height="48" id="Computer" rx="2.5" ry="2.5" style="stroke:#181818;stroke-width:0.5;" width="101" x="119" y="44.2969"/><ellipse cx="134" cy="60.2969" fill="#ADD1B2" rx="11" ry="11" style="stroke:#181818;stroke-width:1.0;"/><path d="M136.9688,65.9375 Q136.3906,66.2344 135.75,66.375 Q135.1094,66.5313 134.4063,66.5313 Q131.9063,66.5313 130.5781,64.8906 Q129.2656,63.2344 129.2656,60.1094 Q129.2656,56.9844 130.5781,55.3281 Q131.9063,53.6719 134.4063,53.6719 Q135.1094,53.6719 135.75,53.8281 Q136.4063,53.9844 136.9688,54.2813 L136.9688,57 Q136.3438,56.4219 135.75,56.1563 Q135.1563,55.875 134.5313,55.875 Q133.1875,55.875 132.5,56.9531 Q131.8125,58.0156 131.8125,60.1094 Q131.8125,62.2031 132.5,63.2813 Q133.1875,64.3438 134.5313,64.3438 Q135.1563,64.3438 135.75,64.0781 Q136.3438,63.7969 136.9688,63.2188 L136.9688,65.9375 Z " fill="#000000"/><text fill="#000000" font-family="sans-serif" font-size="14" lengthAdjust="spacing" textLength="69" x="148" y="65.1436">Computer</text><line style="stroke:#181818;stroke-width:0.5;" x1="120" x2="219" y1="76.2969" y2="76.2969"/><line style="stroke:#181818;stroke-width:0.5;" x1="120" x2="219" y1="84.2969" y2="84.2969"/></g><g id="elem_Mouse"><rect codeLine="5" fill="#F1F1F1" height="48" id="Mouse" rx="2.5" ry="2.5" style="stroke:#181818;stroke-width:0.5;" width="79" x="7" y="152.2969"/><ellipse cx="22" cy="168.2969" fill="#ADD1B2" rx="11" ry="11" style="stroke:#181818;stroke-width:1.0;"/><path d="M24.9688,173.9375 Q24.3906,174.2344 23.75,174.375 Q23.1094,174.5313 22.4063,174.5313 Q19.9063,174.5313 18.5781,172.8906 Q17.2656,171.2344 17.2656,168.1094 Q17.2656,164.9844 18.5781,163.3281 Q19.9063,161.6719 22.4063,161.6719 Q23.1094,161.6719 23.75,161.8281 Q24.4063,161.9844 24.9688,162.2813 L24.9688,165 Q24.3438,164.4219 23.75,164.1563 Q23.1563,163.875 22.5313,163.875 Q21.1875,163.875 20.5,164.9531 Q19.8125,166.0156 19.8125,168.1094 Q19.8125,170.2031 20.5,171.2813 Q21.1875,172.3438 22.5313,172.3438 Q23.1563,172.3438 23.75,172.0781 Q24.3438,171.7969 24.9688,171.2188 L24.9688,173.9375 Z " fill="#000000"/><text fill="#000000" font-family="sans-serif" font-size="14" lengthAdjust="spacing" textLength="47" x="36" y="173.1436">Mouse</text><line style="stroke:#181818;stroke-width:0.5;" x1="8" x2="85" y1="184.2969" y2="184.2969"/><line style="stroke:#181818;stroke-width:0.5;" x1="8" x2="85" y1="192.2969" y2="192.2969"/></g><g id="elem_Keyboard"><rect codeLine="6" fill="#F1F1F1" height="48" id="Keyboard" rx="2.5" ry="2.5" style="stroke:#181818;stroke-width:0.5;" width="97" x="121" y="152.2969"/><ellipse cx="136" cy="168.2969" fill="#ADD1B2" rx="11" ry="11" style="stroke:#181818;stroke-width:1.0;"/><path d="M138.9688,173.9375 Q138.3906,174.2344 137.75,174.375 Q137.1094,174.5313 136.4063,174.5313 Q133.9063,174.5313 132.5781,172.8906 Q131.2656,171.2344 131.2656,168.1094 Q131.2656,164.9844 132.5781,163.3281 Q133.9063,161.6719 136.4063,161.6719 Q137.1094,161.6719 137.75,161.8281 Q138.4063,161.9844 138.9688,162.2813 L138.9688,165 Q138.3438,164.4219 137.75,164.1563 Q137.1563,163.875 136.5313,163.875 Q135.1875,163.875 134.5,164.9531 Q133.8125,166.0156 133.8125,168.1094 Q133.8125,170.2031 134.5,171.2813 Q135.1875,172.3438 136.5313,172.3438 Q137.1563,172.3438 137.75,172.0781 Q138.3438,171.7969 138.9688,171.2188 L138.9688,173.9375 Z " fill="#000000"/><text fill="#000000" font-family="sans-serif" font-size="14" lengthAdjust="spacing" textLength="65" x="150" y="173.1436">Keyboard</text><line style="stroke:#181818;stroke-width:0.5;" x1="122" x2="217" y1="184.2969" y2="184.2969"/><line style="stroke:#181818;stroke-width:0.5;" x1="122" x2="217" y1="192.2969" y2="192.2969"/></g><g id="elem_Screen"><rect codeLine="7" fill="#F1F1F1" height="48" id="Screen" rx="2.5" ry="2.5" style="stroke:#181818;stroke-width:0.5;" width="81" x="253" y="152.2969"/><ellipse cx="268" cy="168.2969" fill="#ADD1B2" rx="11" ry="11" style="stroke:#181818;stroke-width:1.0;"/><path d="M270.9688,173.9375 Q270.3906,174.2344 269.75,174.375 Q269.1094,174.5313 268.4063,174.5313 Q265.9063,174.5313 264.5781,172.8906 Q263.2656,171.2344 263.2656,168.1094 Q263.2656,164.9844 264.5781,163.3281 Q265.9063,161.6719 268.4063,161.6719 Q269.1094,161.6719 269.75,161.8281 Q270.4063,161.9844 270.9688,162.2813 L270.9688,165 Q270.3438,164.4219 269.75,164.1563 Q269.1563,163.875 268.5313,163.875 Q267.1875,163.875 266.5,164.9531 Q265.8125,166.0156 265.8125,168.1094 Q265.8125,170.2031 266.5,171.2813 Q267.1875,172.3438 268.5313,172.3438 Q269.1563,172.3438 269.75,172.0781 Q270.3438,171.7969 270.9688,171.2188 L270.9688,173.9375 Z " fill="#000000"/><text fill="#000000" font-family="sans-serif" font-size="14" lengthAdjust="spacing" textLength="49" x="282" y="173.1436">Screen</text><line style="stroke:#181818;stroke-width:0.5;" x1="254" x2="333" y1="184.2969" y2="184.2969"/><line style="stroke:#181818;stroke-width:0.5;" x1="254" x2="333" y1="192.2969" y2="192.2969"/></g><g id="link_Computer_Keyboard"><path codeLine="9" d="M169.5,104.2969 C169.5,121.9553 169.5,134.2377 169.5,151.9753 " fill="none" id="Computer-backto-Keyboard" style="stroke:#181818;stroke-width:1.0;"/><polygon fill="none" points="169.5,92.2969,165.5,98.2969,169.5,104.2969,173.5,98.2969,169.5,92.2969" style="stroke:#181818;stroke-width:1.0;"/></g><g id="link_Computer_Mouse"><path codeLine="10" d="M133.7209,100.1308 C113.2309,117.7892 94.1442,134.2377 73.5618,151.9753 " fill="none" id="Computer-backto-Mouse" style="stroke:#181818;stroke-width:1.0;"/><polygon fill="none" points="142.811,92.2969,135.6546,93.1838,133.7209,100.1308,140.8772,99.2439,142.811,92.2969" style="stroke:#181818;stroke-width:1.0;"/></g><g id="link_Computer_Screen"><path codeLine="11" d="M205.5275,100.0942 C226.1845,117.7526 245.468,134.2377 266.218,151.9753 " fill="none" id="Computer-backto-Screen" style="stroke:#181818;stroke-width:1.0;"/><polygon fill="none" points="196.406,92.2969,198.3676,99.236,205.5275,100.0942,203.5659,93.1551,196.406,92.2969" style="stroke:#181818;stroke-width:1.0;"/></g></g></svg>